<svg width="138" height="83" viewBox="0 0 138 83" fill="none" xmlns="http://www.w3.org/2000/svg">
<path d="M68.6438 33.1839V48.9073C68.6438 49.0271 68.554 49.1469 68.4042 49.1469H66.757C66.0083 49.1469 65.2895 48.7576 64.8702 48.1286L57.4428 36.6581L57.6824 42.3784V48.9373C57.6824 49.0571 57.5925 49.1769 57.4428 49.1769H55.2864C55.1666 49.1769 55.0468 49.087 55.0468 48.9373V33.1839C55.0468 33.0641 55.1367 32.9443 55.2864 32.9443H56.9037C57.6524 32.9443 58.3712 33.3337 58.7905 33.9626L66.2179 45.4033L65.9783 39.6829V33.1839C65.9783 33.0641 66.0682 32.9443 66.2179 32.9443H68.3743C68.554 32.9443 68.6438 33.0342 68.6438 33.1839Z" fill="black"/>
<path d="M90.7464 49.117H88.4703C88.3205 49.117 88.2007 48.9672 88.2606 48.8175L94.3104 33.154C94.3703 33.0342 94.4901 32.9443 94.6099 32.9443H97.485C97.6348 32.9443 97.7546 33.0342 97.7845 33.154L103.864 48.8175C103.924 48.9672 103.804 49.117 103.655 49.117H101.378C101.289 49.117 101.199 49.0571 101.169 48.9672L96.287 36.089C96.2271 35.9093 95.9276 35.9093 95.8678 36.089L90.986 48.9672C90.9261 49.0571 90.8363 49.117 90.7464 49.117Z" fill="black"/>
<path d="M119.737 48.7576L115.185 42.9474C117.761 42.4682 119.258 40.7312 119.258 38.0657C119.258 35.0108 117.282 32.9443 113.748 32.9443H107.398C107.219 32.9443 107.069 33.0941 107.069 33.2738C107.069 34.4718 108.027 35.4301 109.225 35.4301H113.508C115.634 35.4301 116.653 36.5083 116.653 38.0956C116.653 39.6829 115.664 40.7611 113.508 40.7611H107.458C107.278 40.7611 107.129 40.9109 107.129 41.0906V48.8774C107.129 48.9972 107.219 49.117 107.368 49.117H109.525C109.644 49.117 109.764 49.0271 109.764 48.8774V43.0972H112.25L116.203 48.2484C116.623 48.8175 117.282 49.117 118 49.117H119.648C119.767 49.117 119.857 48.9073 119.737 48.7576Z" fill="black"/>
<path d="M83.918 32.9443H73.885C73.7053 32.9443 73.5855 33.0641 73.5855 33.2438C73.5855 34.4418 74.5738 35.4301 75.7718 35.4301H83.918C84.0378 35.4301 84.1576 35.3403 84.1576 35.1905V33.154C84.1277 33.0342 84.0378 32.9443 83.918 32.9443ZM83.918 46.6312H76.4307C76.3109 46.6312 76.1911 46.5413 76.1911 46.3916V42.3484C76.1911 42.2286 76.2809 42.1088 76.4307 42.1088H83.349C83.4688 42.1088 83.5886 42.019 83.5886 41.8692V39.8327C83.5886 39.7129 83.4987 39.5931 83.349 39.5931H73.915C73.7353 39.5931 73.5855 39.7428 73.5855 39.9225V48.7576C73.5855 48.9373 73.7353 49.087 73.915 49.087H83.918C84.0378 49.087 84.1576 48.9972 84.1576 48.8474V46.8109C84.1277 46.721 84.0378 46.6312 83.918 46.6312Z" fill="black"/>
<path d="M38.994 28.931L33.3635 37.2869C32.9742 37.8559 33.7229 38.5447 34.262 38.0656L39.8026 33.2437C39.9524 33.1239 40.162 33.2138 40.162 33.4234V48.4879C40.162 48.6976 39.8925 48.7874 39.7727 48.6377L23.0011 28.5716C22.462 27.9127 21.6833 27.5533 20.8148 27.5533H20.2158C18.6584 27.5533 17.3706 28.8412 17.3706 30.4285V51.6326C17.3706 53.2199 18.6584 54.5077 20.2457 54.5077C21.2341 54.5077 22.1625 53.9986 22.7016 53.1301L28.3321 44.7742C28.7214 44.2052 27.9727 43.5163 27.4336 43.9955L21.893 48.7874C21.7432 48.9072 21.5336 48.8174 21.5336 48.6077V33.5732C21.5336 33.3635 21.8031 33.2737 21.9229 33.4234L38.6945 53.4895C39.2336 54.1483 40.0422 54.5077 40.8808 54.5077H41.4798C43.0671 54.5077 44.3549 53.2199 44.3549 51.6326V30.4285C44.325 28.8412 43.0372 27.5533 41.4499 27.5533C40.4615 27.5533 39.5331 28.0625 38.994 28.931Z" fill="black"/>
</svg>
